<svg version="1.1" xmlns="http://www.w3.org/2000/svg" xmlns:xlink="http://www.w3.org/1999/xlink" width="508.65178" height="701.91211" viewBox="0,0,508.65178,701.91211"><defs><linearGradient x1="425.55341" y1="193.92025" x2="448.98251" y2="193.92025" gradientUnits="userSpaceOnUse" id="color-1"><stop offset="0" stop-color="#ff9e00"/><stop offset="1" stop-color="#cdc600"/></linearGradient><linearGradient x1="399.35566" y1="196.36449" x2="422.78475" y2="196.36449" gradientUnits="userSpaceOnUse" id="color-2"><stop offset="0" stop-color="#ff9e00"/><stop offset="1" stop-color="#cdc600"/></linearGradient><linearGradient x1="373.1579" y1="202.66875" x2="396.587" y2="202.66875" gradientUnits="userSpaceOnUse" id="color-3"><stop offset="0" stop-color="#ff9e00"/><stop offset="1" stop-color="#cdc600"/></linearGradient><linearGradient x1="183.87519" y1="146.58154" x2="207.30428" y2="146.58154" gradientUnits="userSpaceOnUse" id="color-4"><stop offset="0" stop-color="#ff9e00"/><stop offset="1" stop-color="#cdc600"/></linearGradient><linearGradient x1="145.40506" y1="167.75188" x2="168.83416" y2="167.75188" gradientUnits="userSpaceOnUse" id="color-5"><stop offset="0" stop-color="#ff9e00"/><stop offset="1" stop-color="#cdc600"/></linearGradient><linearGradient x1="115.30246" y1="185.30259" x2="138.73155" y2="185.30259" gradientUnits="userSpaceOnUse" id="color-6"><stop offset="0" stop-color="#ff9e00"/><stop offset="1" stop-color="#cdc600"/></linearGradient><linearGradient x1="70.13831" y1="201.64673" x2="93.56741" y2="201.64673" gradientUnits="userSpaceOnUse" id="color-7"><stop offset="0" stop-color="#ff9e00"/><stop offset="1" stop-color="#cdc600"/></linearGradient><linearGradient x1="41.43029" y1="223.78235" x2="64.85938" y2="223.78235" gradientUnits="userSpaceOnUse" id="color-8"><stop offset="0" stop-color="#ff9e00"/><stop offset="1" stop-color="#cdc600"/></linearGradient><linearGradient x1="206.96381" y1="226.83039" x2="227.88164" y2="226.83039" gradientUnits="userSpaceOnUse" id="color-9"><stop offset="0" stop-color="#ff9e00"/><stop offset="1" stop-color="#cdc600"/></linearGradient><linearGradient x1="260.41692" y1="220.70218" x2="281.33474" y2="220.70218" gradientUnits="userSpaceOnUse" id="color-10"><stop offset="0" stop-color="#ff9e00"/><stop offset="1" stop-color="#cdc600"/></linearGradient><linearGradient x1="341.93958" y1="198.22014" x2="365.36867" y2="198.22014" gradientUnits="userSpaceOnUse" id="color-11"><stop offset="0" stop-color="#ff9e00"/><stop offset="1" stop-color="#cdc600"/></linearGradient><linearGradient x1="315.20462" y1="209.67026" x2="338.63372" y2="209.67026" gradientUnits="userSpaceOnUse" id="color-12"><stop offset="0" stop-color="#ff9e00"/><stop offset="1" stop-color="#cdc600"/></linearGradient><linearGradient x1="288.12888" y1="208.362" x2="311.55797" y2="208.362" gradientUnits="userSpaceOnUse" id="color-13"><stop offset="0" stop-color="#ff9e00"/><stop offset="1" stop-color="#cdc600"/></linearGradient><linearGradient x1="233.7399" y1="227.32" x2="257.169" y2="227.32" gradientUnits="userSpaceOnUse" id="color-14"><stop offset="0" stop-color="#ff9e00"/><stop offset="1" stop-color="#cdc600"/></linearGradient><linearGradient x1="143.13263" y1="253.59561" x2="166.56173" y2="253.59561" gradientUnits="userSpaceOnUse" id="color-15"><stop offset="0" stop-color="#ff9e00"/><stop offset="1" stop-color="#cdc600"/></linearGradient><linearGradient x1="173.7931" y1="240.35463" x2="197.22219" y2="240.35463" gradientUnits="userSpaceOnUse" id="color-16"><stop offset="0" stop-color="#ff9e00"/><stop offset="1" stop-color="#cdc600"/></linearGradient><linearGradient x1="114.70365" y1="270.35451" x2="138.13274" y2="270.35451" gradientUnits="userSpaceOnUse" id="color-17"><stop offset="0" stop-color="#ff9e00"/><stop offset="1" stop-color="#cdc600"/></linearGradient><linearGradient x1="92.41074" y1="293.41944" x2="115.83983" y2="293.41944" gradientUnits="userSpaceOnUse" id="color-18"><stop offset="0" stop-color="#ff9e00"/><stop offset="1" stop-color="#cdc600"/></linearGradient><linearGradient x1="65.0973" y1="305.90366" x2="88.52639" y2="305.90366" gradientUnits="userSpaceOnUse" id="color-19"><stop offset="0" stop-color="#ff9e00"/><stop offset="1" stop-color="#cdc600"/></linearGradient><linearGradient x1="36.38927" y1="328.03927" x2="59.81837" y2="328.03927" gradientUnits="userSpaceOnUse" id="color-20"><stop offset="0" stop-color="#ff9e00"/><stop offset="1" stop-color="#cdc600"/></linearGradient><linearGradient x1="291.21747" y1="119.2649" x2="312.1353" y2="119.2649" gradientUnits="userSpaceOnUse" id="color-21"><stop offset="0" stop-color="#ff9e00"/><stop offset="1" stop-color="#cdc600"/></linearGradient><linearGradient x1="238.78092" y1="123.06308" x2="262.21001" y2="123.06308" gradientUnits="userSpaceOnUse" id="color-22"><stop offset="0" stop-color="#ff9e00"/><stop offset="1" stop-color="#cdc600"/></linearGradient><linearGradient x1="210.63074" y1="135.54625" x2="234.05984" y2="135.54625" gradientUnits="userSpaceOnUse" id="color-23"><stop offset="0" stop-color="#ff9e00"/><stop offset="1" stop-color="#cdc600"/></linearGradient><radialGradient cx="40.36837" cy="176.75948" r="13.57886" gradientUnits="userSpaceOnUse" id="color-24"><stop offset="0" stop-color="#141414"/><stop offset="1" stop-color="#8a8a8a"/></radialGradient><linearGradient x1="27.21213" y1="176.75948" x2="53.52462" y2="176.75948" gradientUnits="userSpaceOnUse" id="color-25"><stop offset="0" stop-color="#ff9e00"/><stop offset="1" stop-color="#cdc600"/></linearGradient><radialGradient cx="65.36837" cy="176.75948" r="13.57886" gradientUnits="userSpaceOnUse" id="color-26"><stop offset="0" stop-color="#141414"/><stop offset="1" stop-color="#8a8a8a"/></radialGradient><linearGradient x1="52.21213" y1="176.75948" x2="78.52462" y2="176.75948" gradientUnits="userSpaceOnUse" id="color-27"><stop offset="0" stop-color="#ff9e00"/><stop offset="1" stop-color="#cdc600"/></linearGradient><radialGradient cx="90.83198" cy="178.45094" r="13.57886" gradientUnits="userSpaceOnUse" id="color-28"><stop offset="0" stop-color="#141414"/><stop offset="1" stop-color="#8a8a8a"/></radialGradient><linearGradient x1="77.67574" y1="178.45094" x2="103.98823" y2="178.45094" gradientUnits="userSpaceOnUse" id="color-29"><stop offset="0" stop-color="#ff9e00"/><stop offset="1" stop-color="#cdc600"/></linearGradient><radialGradient cx="115.83198" cy="178.45094" r="13.57886" gradientUnits="userSpaceOnUse" id="color-30"><stop offset="0" stop-color="#141414"/><stop offset="1" stop-color="#8a8a8a"/></radialGradient><linearGradient x1="102.67574" y1="178.45094" x2="128.98823" y2="178.45094" gradientUnits="userSpaceOnUse" id="color-31"><stop offset="0" stop-color="#ff9e00"/><stop offset="1" stop-color="#cdc600"/></linearGradient><radialGradient cx="144.92153" cy="179.3152" r="13.57886" gradientUnits="userSpaceOnUse" id="color-32"><stop offset="0" stop-color="#141414"/><stop offset="1" stop-color="#8a8a8a"/></radialGradient><linearGradient x1="131.76529" y1="179.3152" x2="158.07778" y2="179.3152" gradientUnits="userSpaceOnUse" id="color-33"><stop offset="0" stop-color="#ff9e00"/><stop offset="1" stop-color="#cdc600"/></linearGradient><radialGradient cx="169.92153" cy="179.3152" r="13.57886" gradientUnits="userSpaceOnUse" id="color-34"><stop offset="0" stop-color="#141414"/><stop offset="1" stop-color="#8a8a8a"/></radialGradient><linearGradient x1="156.76529" y1="179.3152" x2="183.07778" y2="179.3152" gradientUnits="userSpaceOnUse" id="color-35"><stop offset="0" stop-color="#ff9e00"/><stop offset="1" stop-color="#cdc600"/></linearGradient><radialGradient cx="195.1062" cy="179.9038" r="13.57886" gradientUnits="userSpaceOnUse" id="color-36"><stop offset="0" stop-color="#141414"/><stop offset="1" stop-color="#8a8a8a"/></radialGradient><linearGradient x1="181.94995" y1="179.9038" x2="208.26244" y2="179.9038" gradientUnits="userSpaceOnUse" id="color-37"><stop offset="0" stop-color="#ff9e00"/><stop offset="1" stop-color="#cdc600"/></linearGradient><radialGradient cx="220.1062" cy="179.9038" r="13.57886" gradientUnits="userSpaceOnUse" id="color-38"><stop offset="0" stop-color="#141414"/><stop offset="1" stop-color="#8a8a8a"/></radialGradient><linearGradient x1="206.94995" y1="179.9038" x2="233.26244" y2="179.9038" gradientUnits="userSpaceOnUse" id="color-39"><stop offset="0" stop-color="#ff9e00"/><stop offset="1" stop-color="#cdc600"/></linearGradient><radialGradient cx="248.9168" cy="179.38951" r="13.57886" gradientUnits="userSpaceOnUse" id="color-40"><stop offset="0" stop-color="#141414"/><stop offset="1" stop-color="#8a8a8a"/></radialGradient><linearGradient x1="235.76056" y1="179.38951" x2="262.07304" y2="179.38951" gradientUnits="userSpaceOnUse" id="color-41"><stop offset="0" stop-color="#ff9e00"/><stop offset="1" stop-color="#cdc600"/></linearGradient><radialGradient cx="277.26385" cy="178.28673" r="13.57886" gradientUnits="userSpaceOnUse" id="color-42"><stop offset="0" stop-color="#141414"/><stop offset="1" stop-color="#8a8a8a"/></radialGradient><linearGradient x1="264.1076" y1="178.28673" x2="290.42009" y2="178.28673" gradientUnits="userSpaceOnUse" id="color-43"><stop offset="0" stop-color="#ff9e00"/><stop offset="1" stop-color="#cdc600"/></linearGradient><radialGradient cx="305.7955" cy="178.87526" r="13.57886" gradientUnits="userSpaceOnUse" id="color-44"><stop offset="0" stop-color="#141414"/><stop offset="1" stop-color="#8a8a8a"/></radialGradient><linearGradient x1="292.63925" y1="178.87526" x2="318.95174" y2="178.87526" gradientUnits="userSpaceOnUse" id="color-45"><stop offset="0" stop-color="#ff9e00"/><stop offset="1" stop-color="#cdc600"/></linearGradient><radialGradient cx="335.816" cy="178.32378" r="13.57886" gradientUnits="userSpaceOnUse" id="color-46"><stop offset="0" stop-color="#141414"/><stop offset="1" stop-color="#8a8a8a"/></radialGradient><linearGradient x1="322.65976" y1="178.32378" x2="348.97225" y2="178.32378" gradientUnits="userSpaceOnUse" id="color-47"><stop offset="0" stop-color="#ff9e00"/><stop offset="1" stop-color="#cdc600"/></linearGradient><radialGradient cx="362.95317" cy="175.87953" r="13.57886" gradientUnits="userSpaceOnUse" id="color-48"><stop offset="0" stop-color="#141414"/><stop offset="1" stop-color="#8a8a8a"/></radialGradient><linearGradient x1="349.79692" y1="175.87953" x2="376.10941" y2="175.87953" gradientUnits="userSpaceOnUse" id="color-49"><stop offset="0" stop-color="#ff9e00"/><stop offset="1" stop-color="#cdc600"/></linearGradient><radialGradient cx="387.95317" cy="175.87953" r="13.57886" gradientUnits="userSpaceOnUse" id="color-50"><stop offset="0" stop-color="#141414"/><stop offset="1" stop-color="#8a8a8a"/></radialGradient><linearGradient x1="374.79692" y1="175.87953" x2="401.10941" y2="175.87953" gradientUnits="userSpaceOnUse" id="color-51"><stop offset="0" stop-color="#ff9e00"/><stop offset="1" stop-color="#cdc600"/></linearGradient><radialGradient cx="412.30113" cy="176.46809" r="13.57886" gradientUnits="userSpaceOnUse" id="color-52"><stop offset="0" stop-color="#141414"/><stop offset="1" stop-color="#8a8a8a"/></radialGradient><linearGradient x1="399.14488" y1="176.46809" x2="425.45737" y2="176.46809" gradientUnits="userSpaceOnUse" id="color-53"><stop offset="0" stop-color="#ff9e00"/><stop offset="1" stop-color="#cdc600"/></linearGradient><radialGradient cx="437.30113" cy="176.46809" r="13.57886" gradientUnits="userSpaceOnUse" id="color-54"><stop offset="0" stop-color="#141414"/><stop offset="1" stop-color="#8a8a8a"/></radialGradient><linearGradient x1="424.14488" y1="176.46809" x2="450.45737" y2="176.46809" gradientUnits="userSpaceOnUse" id="color-55"><stop offset="0" stop-color="#ff9e00"/><stop offset="1" stop-color="#cdc600"/></linearGradient><linearGradient x1="315.10521" y1="111.48239" x2="336.02304" y2="111.48239" gradientUnits="userSpaceOnUse" id="color-56"><stop offset="0" stop-color="#ff9e00"/><stop offset="1" stop-color="#cdc600"/></linearGradient><linearGradient x1="414.47864" y1="92.86037" x2="437.90774" y2="92.86037" gradientUnits="userSpaceOnUse" id="color-57"><stop offset="0" stop-color="#ff9e00"/><stop offset="1" stop-color="#cdc600"/></linearGradient><linearGradient x1="360.40982" y1="105.4133" x2="383.83892" y2="105.4133" gradientUnits="userSpaceOnUse" id="color-58"><stop offset="0" stop-color="#ff9e00"/><stop offset="1" stop-color="#cdc600"/></linearGradient><linearGradient x1="386.88633" y1="99.14221" x2="410.31542" y2="99.14221" gradientUnits="userSpaceOnUse" id="color-59"><stop offset="0" stop-color="#ff9e00"/><stop offset="1" stop-color="#cdc600"/></linearGradient><radialGradient cx="53.73583" cy="65.95977" r="13.57886" gradientUnits="userSpaceOnUse" id="color-60"><stop offset="0" stop-color="#141414"/><stop offset="1" stop-color="#8a8a8a"/></radialGradient><linearGradient x1="40.57959" y1="65.95977" x2="66.89208" y2="65.95977" gradientUnits="userSpaceOnUse" id="color-61"><stop offset="0" stop-color="#ff9e00"/><stop offset="1" stop-color="#cdc600"/></linearGradient><radialGradient cx="78.73583" cy="65.95977" r="13.57886" gradientUnits="userSpaceOnUse" id="color-62"><stop offset="0" stop-color="#141414"/><stop offset="1" stop-color="#8a8a8a"/></radialGradient><linearGradient x1="65.57958" y1="65.95977" x2="91.89208" y2="65.95977" gradientUnits="userSpaceOnUse" id="color-63"><stop offset="0" stop-color="#ff9e00"/><stop offset="1" stop-color="#cdc600"/></linearGradient><radialGradient cx="128.08378" cy="66.54837" r="13.57886" gradientUnits="userSpaceOnUse" id="color-64"><stop offset="0" stop-color="#141414"/><stop offset="1" stop-color="#8a8a8a"/></radialGradient><linearGradient x1="114.92754" y1="66.54837" x2="141.24003" y2="66.54837" gradientUnits="userSpaceOnUse" id="color-65"><stop offset="0" stop-color="#ff9e00"/><stop offset="1" stop-color="#cdc600"/></linearGradient><radialGradient cx="157.17333" cy="67.41263" r="13.57886" gradientUnits="userSpaceOnUse" id="color-66"><stop offset="0" stop-color="#141414"/><stop offset="1" stop-color="#8a8a8a"/></radialGradient><linearGradient x1="144.01709" y1="67.41263" x2="170.32958" y2="67.41263" gradientUnits="userSpaceOnUse" id="color-67"><stop offset="0" stop-color="#ff9e00"/><stop offset="1" stop-color="#cdc600"/></linearGradient><radialGradient cx="198.15368" cy="68.27695" r="13.57886" gradientUnits="userSpaceOnUse" id="color-68"><stop offset="0" stop-color="#141414"/><stop offset="1" stop-color="#8a8a8a"/></radialGradient><linearGradient x1="184.99744" y1="68.27695" x2="211.30993" y2="68.27695" gradientUnits="userSpaceOnUse" id="color-69"><stop offset="0" stop-color="#ff9e00"/><stop offset="1" stop-color="#cdc600"/></linearGradient><radialGradient cx="223.15368" cy="68.27695" r="13.57886" gradientUnits="userSpaceOnUse" id="color-70"><stop offset="0" stop-color="#141414"/><stop offset="1" stop-color="#8a8a8a"/></radialGradient><linearGradient x1="209.99744" y1="68.27695" x2="236.30993" y2="68.27695" gradientUnits="userSpaceOnUse" id="color-71"><stop offset="0" stop-color="#ff9e00"/><stop offset="1" stop-color="#cdc600"/></linearGradient><radialGradient cx="249.73293" cy="68.03838" r="13.57886" gradientUnits="userSpaceOnUse" id="color-72"><stop offset="0" stop-color="#141414"/><stop offset="1" stop-color="#8a8a8a"/></radialGradient><linearGradient x1="236.57669" y1="68.03838" x2="262.88918" y2="68.03838" gradientUnits="userSpaceOnUse" id="color-73"><stop offset="0" stop-color="#ff9e00"/><stop offset="1" stop-color="#cdc600"/></linearGradient><radialGradient cx="325.02026" cy="68.35125" r="13.57886" gradientUnits="userSpaceOnUse" id="color-74"><stop offset="0" stop-color="#141414"/><stop offset="1" stop-color="#8a8a8a"/></radialGradient><linearGradient x1="311.86401" y1="68.35125" x2="338.1765" y2="68.35125" gradientUnits="userSpaceOnUse" id="color-75"><stop offset="0" stop-color="#ff9e00"/><stop offset="1" stop-color="#cdc600"/></linearGradient><radialGradient cx="302.60415" cy="68.07552" r="13.57886" gradientUnits="userSpaceOnUse" id="color-76"><stop offset="0" stop-color="#141414"/><stop offset="1" stop-color="#8a8a8a"/></radialGradient><linearGradient x1="289.4479" y1="68.07552" x2="315.76039" y2="68.07552" gradientUnits="userSpaceOnUse" id="color-77"><stop offset="0" stop-color="#ff9e00"/><stop offset="1" stop-color="#cdc600"/></linearGradient><radialGradient cx="376.32063" cy="65.07983" r="13.57886" gradientUnits="userSpaceOnUse" id="color-78"><stop offset="0" stop-color="#141414"/><stop offset="1" stop-color="#8a8a8a"/></radialGradient><linearGradient x1="363.16438" y1="65.07983" x2="389.47687" y2="65.07983" gradientUnits="userSpaceOnUse" id="color-79"><stop offset="0" stop-color="#ff9e00"/><stop offset="1" stop-color="#cdc600"/></linearGradient><radialGradient cx="401.32063" cy="65.07983" r="13.57886" gradientUnits="userSpaceOnUse" id="color-80"><stop offset="0" stop-color="#141414"/><stop offset="1" stop-color="#8a8a8a"/></radialGradient><linearGradient x1="388.16438" y1="65.07983" x2="414.47687" y2="65.07983" gradientUnits="userSpaceOnUse" id="color-81"><stop offset="0" stop-color="#ff9e00"/><stop offset="1" stop-color="#cdc600"/></linearGradient><radialGradient cx="425.94752" cy="65.66839" r="13.57886" gradientUnits="userSpaceOnUse" id="color-82"><stop offset="0" stop-color="#141414"/><stop offset="1" stop-color="#8a8a8a"/></radialGradient><linearGradient x1="412.79128" y1="65.66839" x2="439.10377" y2="65.66839" gradientUnits="userSpaceOnUse" id="color-83"><stop offset="0" stop-color="#ff9e00"/><stop offset="1" stop-color="#cdc600"/></linearGradient><linearGradient x1="232.19826" y1="227.52847" x2="232.19826" y2="288.73686" gradientUnits="userSpaceOnUse" id="color-84"><stop offset="0" stop-color="#5b5b5b"/><stop offset="1" stop-color="#000000"/></linearGradient><linearGradient x1="235.94248" y1="122.8759" x2="235.94248" y2="134.84405" gradientUnits="userSpaceOnUse" id="color-85"><stop offset="0" stop-color="#5b5b5b"/><stop offset="1" stop-color="#000000"/></linearGradient><linearGradient x1="425.04262" y1="277.16904" x2="425.04262" y2="300.35213" gradientUnits="userSpaceOnUse" id="color-86"><stop offset="0" stop-color="#767676"/><stop offset="1" stop-color="#000000"/></linearGradient></defs><g transform="translate(17.96214,38.8383)"><g data-paper-data="{&quot;isPaintingLayer&quot;:true}" fill-rule="nonzero" stroke-linecap="butt" stroke-linejoin="miter" stroke-miterlimit="10" stroke-dasharray="" stroke-dashoffset="0" style="mix-blend-mode: normal"><path d="M14.88362,391.04212v-381.69352h14.82772v381.69353z" fill="#858585" stroke="#000000" stroke-width="0.5"/><path d="M-5.25685,662.8238v-381.69352h14.82772v381.69353z" fill="#858585" stroke="#000000" stroke-width="0.5"/><g><g><g stroke="#000000" stroke-width="0.5"><path d="M425.55341,215.958v-44.07549h23.4291v44.07549z" fill="url(#color-1)"/><path d="M399.35566,218.40224v-44.07549h23.42909v44.07549z" fill="url(#color-2)"/><path d="M373.1579,224.7065v-44.07549h23.4291v44.07549z" fill="url(#color-3)"/><path d="M183.87519,222.11204v-151.06099h23.4291v151.06099z" fill="url(#color-4)"/><path d="M145.40506,259.20892v-182.91408h23.4291v182.91408z" fill="url(#color-5)"/><path d="M115.30246,304.99307v-239.38096h23.42909v239.38096z" fill="url(#color-6)"/><path d="M70.13831,337.26376v-271.23406h23.42909v271.23406z" fill="url(#color-7)"/><path d="M41.43029,359.39939v-271.23406h23.4291v271.23407z" fill="url(#color-8)"/><path d="M206.96381,280.09744v-106.5341h20.91783v106.5341z" fill="url(#color-9)"/><path d="M260.41692,273.96922v-106.5341h20.91782v106.5341z" fill="url(#color-10)"/><path d="M341.93958,227.97786v-59.51543h23.42909v59.51544z" fill="url(#color-11)"/><path d="M315.20462,252.59269v-85.84486h23.4291v85.84486z" fill="url(#color-12)"/><path d="M288.12888,251.28443v-85.84486h23.42909v85.84486z" fill="url(#color-13)"/><path d="M233.7399,279.68459v-104.72919h23.42909v104.72919z" fill="url(#color-14)"/><path d="M143.13263,329.12611v-151.06099h23.42909v151.06099z" fill="url(#color-15)"/><path d="M173.7931,315.88513v-151.06099h23.4291v151.06099z" fill="url(#color-16)"/><path d="M114.70365,361.81155v-182.91408h23.4291v182.91408z" fill="url(#color-17)"/><path d="M92.41074,413.10992v-239.38095h23.4291v239.38096z" fill="url(#color-18)"/><path d="M65.0973,441.52068v-271.23406h23.4291v271.23406z" fill="url(#color-19)"/><path d="M36.38927,463.65631v-271.23406h23.42909v271.23407z" fill="url(#color-20)"/></g><path d="M291.21747,172.53195v-106.5341h20.91783v106.53411z" fill="url(#color-21)" stroke="#000000" stroke-width="0.5"/><path d="M238.78092,175.42767v-104.72919h23.4291v104.72919z" fill="url(#color-22)" stroke="#000000" stroke-width="0.5"/><path d="M210.63074,211.07675v-151.06099h23.42909v151.06099z" fill="url(#color-23)" stroke="#000000" stroke-width="0.5"/><path d="M53.52462,176.75948c0,7.49939 -5.89025,13.57886 -13.15624,13.57886c-7.266,0 -13.15624,-6.07946 -13.15624,-13.57886c0,-7.49939 5.89025,-13.57886 13.15624,-13.57886c7.266,0 13.15624,6.07946 13.15624,13.57886z" fill="url(#color-24)" stroke="url(#color-25)" stroke-width="5"/><path d="M78.52462,176.75948c0,7.49939 -5.89025,13.57886 -13.15624,13.57886c-7.266,0 -13.15624,-6.07946 -13.15624,-13.57886c0,-7.49939 5.89025,-13.57886 13.15624,-13.57886c7.266,0 13.15624,6.07946 13.15624,13.57886z" fill="url(#color-26)" stroke="url(#color-27)" stroke-width="5"/><path d="M103.98823,178.45094c0,7.49939 -5.89025,13.57886 -13.15624,13.57886c-7.266,0 -13.15624,-6.07946 -13.15624,-13.57886c0,-7.49939 5.89025,-13.57886 13.15624,-13.57886c7.266,0 13.15624,6.07946 13.15624,13.57886z" fill="url(#color-28)" stroke="url(#color-29)" stroke-width="5"/><path d="M128.98823,178.45094c0,7.49939 -5.89025,13.57886 -13.15624,13.57886c-7.266,0 -13.15624,-6.07946 -13.15624,-13.57886c0,-7.49939 5.89025,-13.57886 13.15624,-13.57886c7.266,0 13.15624,6.07946 13.15624,13.57886z" fill="url(#color-30)" stroke="url(#color-31)" stroke-width="5"/><path d="M158.07778,179.3152c0,7.49939 -5.89025,13.57886 -13.15625,13.57886c-7.266,0 -13.15624,-6.07946 -13.15624,-13.57886c0,-7.49939 5.89025,-13.57886 13.15624,-13.57886c7.266,0 13.15625,6.07946 13.15625,13.57886z" fill="url(#color-32)" stroke="url(#color-33)" stroke-width="5"/><path d="M183.07778,179.3152c0,7.49939 -5.89025,13.57886 -13.15625,13.57886c-7.266,0 -13.15624,-6.07946 -13.15624,-13.57886c0,-7.49939 5.89025,-13.57886 13.15624,-13.57886c7.266,0 13.15625,6.07946 13.15625,13.57886z" fill="url(#color-34)" stroke="url(#color-35)" stroke-width="5"/><path d="M208.26244,179.9038c0,7.49939 -5.89025,13.57886 -13.15624,13.57886c-7.266,0 -13.15625,-6.07946 -13.15625,-13.57886c0,-7.49939 5.89025,-13.57886 13.15625,-13.57886c7.266,0 13.15624,6.07946 13.15624,13.57886z" fill="url(#color-36)" stroke="url(#color-37)" stroke-width="5"/><path d="M233.26244,179.9038c0,7.49939 -5.89025,13.57886 -13.15624,13.57886c-7.266,0 -13.15625,-6.07946 -13.15625,-13.57886c0,-7.49939 5.89025,-13.57886 13.15625,-13.57886c7.266,0 13.15624,6.07946 13.15624,13.57886z" fill="url(#color-38)" stroke="url(#color-39)" stroke-width="5"/><path d="M262.07304,179.38951c0,7.49939 -5.89025,13.57886 -13.15624,13.57886c-7.266,0 -13.15624,-6.07946 -13.15624,-13.57886c0,-7.49939 5.89025,-13.57886 13.15624,-13.57886c7.266,0 13.15624,6.07946 13.15624,13.57886z" fill="url(#color-40)" stroke="url(#color-41)" stroke-width="5"/><path d="M290.42009,178.28673c0,7.49939 -5.89025,13.57886 -13.15625,13.57886c-7.26599,0 -13.15625,-6.07947 -13.15625,-13.57886c0,-7.49939 5.89025,-13.57886 13.15625,-13.57886c7.26599,0 13.15625,6.07946 13.15625,13.57886z" fill="url(#color-42)" stroke="url(#color-43)" stroke-width="5"/><path d="M318.95174,178.87526c0,7.49939 -5.89025,13.57886 -13.15624,13.57886c-7.26599,0 -13.15625,-6.07946 -13.15625,-13.57886c0,-7.49939 5.89025,-13.57886 13.15625,-13.57886c7.26599,0 13.15624,6.07946 13.15624,13.57886z" fill="url(#color-44)" stroke="url(#color-45)" stroke-width="5"/><path d="M348.97225,178.32378c0,7.49939 -5.89025,13.57886 -13.15625,13.57886c-7.26599,0 -13.15624,-6.07946 -13.15624,-13.57886c0,-7.49939 5.89025,-13.57886 13.15624,-13.57886c7.26599,0 13.15625,6.07947 13.15625,13.57886z" fill="url(#color-46)" stroke="url(#color-47)" stroke-width="5"/><g stroke-width="5"><path d="M376.10941,175.87953c0,7.49939 -5.89025,13.57886 -13.15625,13.57886c-7.26599,0 -13.15625,-6.07946 -13.15625,-13.57886c0,-7.49939 5.89025,-13.57886 13.15625,-13.57886c7.26599,0 13.15625,6.07947 13.15625,13.57886z" fill="url(#color-48)" stroke="url(#color-49)"/><path d="M401.10941,175.87953c0,7.49939 -5.89025,13.57886 -13.15625,13.57886c-7.26599,0 -13.15625,-6.07946 -13.15625,-13.57886c0,-7.49939 5.89025,-13.57886 13.15625,-13.57886c7.26599,0 13.15625,6.07947 13.15625,13.57886z" fill="url(#color-50)" stroke="url(#color-51)"/></g><g stroke-width="5"><path d="M425.45737,176.46809c0,7.49939 -5.89025,13.57886 -13.15625,13.57886c-7.26599,0 -13.15625,-6.07947 -13.15625,-13.57886c0,-7.49939 5.89025,-13.57886 13.15625,-13.57886c7.26599,0 13.15625,6.07946 13.15625,13.57886z" fill="url(#color-52)" stroke="url(#color-53)"/><path d="M450.45737,176.46809c0,7.49939 -5.89025,13.57886 -13.15625,13.57886c-7.26599,0 -13.15625,-6.07947 -13.15625,-13.57886c0,-7.49939 5.89025,-13.57886 13.15625,-13.57886c7.26599,0 13.15625,6.07946 13.15625,13.57886z" fill="url(#color-54)" stroke="url(#color-55)"/></g></g><path d="M315.10521,164.74943v-106.5341h20.91782v106.5341z" fill="url(#color-56)" stroke="#000000" stroke-width="0.5"/><path d="M414.47864,122.61809v-59.51543h23.4291v59.51544z" fill="url(#color-57)" stroke="#000000" stroke-width="0.5"/><path d="M360.40982,148.33573v-85.84485h23.42909v85.84486z" fill="url(#color-58)" stroke="#000000" stroke-width="0.5"/><path d="M386.88633,142.06464v-85.84485h23.4291v85.84486z" fill="url(#color-59)" stroke="#000000" stroke-width="0.5"/><path d="M66.89208,65.95977c0,7.49939 -5.89025,13.57886 -13.15625,13.57886c-7.26599,0 -13.15624,-6.07946 -13.15624,-13.57886c0,-7.49939 5.89025,-13.57886 13.15624,-13.57886c7.26599,0 13.15625,6.07947 13.15625,13.57886z" fill="url(#color-60)" stroke="url(#color-61)" stroke-width="5"/><path d="M91.89208,65.95977c0,7.49939 -5.89025,13.57886 -13.15624,13.57886c-7.266,0 -13.15625,-6.07946 -13.15625,-13.57886c0,-7.49939 5.89025,-13.57886 13.15625,-13.57886c7.266,0 13.15624,6.07947 13.15624,13.57886z" fill="url(#color-62)" stroke="url(#color-63)" stroke-width="5"/><path d="M141.24003,66.54837c0,7.49939 -5.89025,13.57886 -13.15625,13.57886c-7.266,0 -13.15624,-6.07947 -13.15624,-13.57886c0,-7.49939 5.89025,-13.57886 13.15624,-13.57886c7.266,0 13.15625,6.07946 13.15625,13.57886z" fill="url(#color-64)" stroke="url(#color-65)" stroke-width="5"/><path d="M170.32958,67.41263c0,7.49939 -5.89025,13.57886 -13.15625,13.57886c-7.266,0 -13.15624,-6.07947 -13.15624,-13.57886c0,-7.49939 5.89025,-13.57886 13.15624,-13.57886c7.266,0 13.15625,6.07946 13.15625,13.57886z" fill="url(#color-66)" stroke="url(#color-67)" stroke-width="5"/><path d="M211.30993,68.27695c0,7.49939 -5.89025,13.57886 -13.15624,13.57886c-7.266,0 -13.15625,-6.07947 -13.15625,-13.57886c0,-7.49939 5.89025,-13.57886 13.15625,-13.57886c7.266,0 13.15624,6.07946 13.15624,13.57886z" fill="url(#color-68)" stroke="url(#color-69)" stroke-width="5"/><path d="M236.30993,68.27695c0,7.49939 -5.89025,13.57886 -13.15624,13.57886c-7.266,0 -13.15625,-6.07947 -13.15625,-13.57886c0,-7.49939 5.89025,-13.57886 13.15625,-13.57886c7.266,0 13.15624,6.07946 13.15624,13.57886z" fill="url(#color-70)" stroke="url(#color-71)" stroke-width="5"/><path d="M262.88918,68.03838c0,7.49939 -5.89025,13.57886 -13.15625,13.57886c-7.266,0 -13.15625,-6.07947 -13.15625,-13.57886c0,-7.49939 5.89025,-13.57886 13.15625,-13.57886c7.26599,0 13.15625,6.07946 13.15625,13.57886z" fill="url(#color-72)" stroke="url(#color-73)" stroke-width="5"/><path d="M338.1765,68.35125c0,7.49939 -5.89025,13.57886 -13.15624,13.57886c-7.26599,0 -13.15625,-6.07947 -13.15625,-13.57886c0,-7.49939 5.89025,-13.57886 13.15625,-13.57886c7.26599,0 13.15624,6.07946 13.15624,13.57886z" fill="url(#color-74)" stroke="url(#color-75)" stroke-width="5"/><path d="M315.76039,68.07552c0,7.4994 -5.89025,13.57886 -13.15624,13.57886c-7.26599,0 -13.15625,-6.07946 -13.15625,-13.57886c0,-7.49939 5.89025,-13.57886 13.15625,-13.57886c7.26599,0 13.15624,6.07947 13.15624,13.57886z" fill="url(#color-76)" stroke="url(#color-77)" stroke-width="5"/><g stroke-width="5"><path d="M389.47687,65.07983c0,7.4994 -5.89025,13.57886 -13.15625,13.57886c-7.26599,0 -13.15625,-6.07946 -13.15625,-13.57886c0,-7.49939 5.89025,-13.57886 13.15625,-13.57886c7.26599,0 13.15625,6.07946 13.15625,13.57886z" fill="url(#color-78)" stroke="url(#color-79)"/><path d="M414.47687,65.07983c0,7.4994 -5.89025,13.57886 -13.15625,13.57886c-7.26599,0 -13.15625,-6.07946 -13.15625,-13.57886c0,-7.49939 5.89025,-13.57886 13.15625,-13.57886c7.26599,0 13.15625,6.07946 13.15625,13.57886z" fill="url(#color-80)" stroke="url(#color-81)"/></g><path d="M439.10377,65.66839c0,7.4994 -5.89025,13.57886 -13.15625,13.57886c-7.26599,0 -13.15625,-6.07946 -13.15625,-13.57886c0,-7.49939 5.89025,-13.57886 13.15625,-13.57886c7.26599,0 13.15625,6.07946 13.15625,13.57886z" fill="url(#color-82)" stroke="url(#color-83)" stroke-width="5"/></g><path d="M466.29568,637.42256v-381.69352h14.82772v381.69353z" fill="#858585" stroke="#000000" stroke-width="0.5"/><path d="M451.00007,382.23333v-381.69352h14.82772v381.69353z" fill="#858585" stroke="#000000" stroke-width="0.5"/><path d="M-7.57307,234.68098v-240.42218h22.87116v240.42218z" fill="#000000" stroke="#000000" stroke-width="0.5"/><path d="M463.2608,238.77952v-277.36781h22.87115v277.36781z" fill="#000000" stroke="#000000" stroke-width="0.5"/><path d="M-17.71214,288.73686v-61.2084h499.8208v61.2084z" fill="url(#color-84)" stroke="#bcbcbc" stroke-width="0.5"/><text transform="translate(5.15916,266.31667) scale(0.96599,0.96599)" font-size="40" xml:space="preserve" fill="#ffc800" fill-rule="nonzero" stroke="none" stroke-width="1" stroke-linecap="butt" stroke-linejoin="miter" stroke-miterlimit="10" stroke-dasharray="" stroke-dashoffset="0" font-family="Sans Serif" font-weight="normal" text-anchor="start" style="mix-blend-mode: normal"><tspan x="0" dy="0">SCR</tspan></text><text transform="translate(79.7415,265.94423) scale(0.25642,0.25642)" font-size="40" xml:space="preserve" fill="#ffc800" fill-rule="nonzero" stroke="none" stroke-width="1" stroke-linecap="butt" stroke-linejoin="miter" stroke-miterlimit="10" stroke-dasharray="" stroke-dashoffset="0" font-family="Sans Serif" font-weight="normal" text-anchor="start" style="mix-blend-mode: normal"><tspan x="0" dy="0">SCR-M2964</tspan></text><path d="M-13.96792,134.84405v-11.96815h499.8208v11.96815z" fill="url(#color-85)" stroke="#bcbcbc" stroke-width="0.5"/><path d="M11.25898,48.19353v-5.51428h465.23492v5.51428z" fill="#800000" stroke="#000000" stroke-width="0.5"/><path d="M11.23835,90.6906v-5.51428h465.23492v5.51428z" fill="#800000" stroke="#000000" stroke-width="0.5"/><path d="M7.87074,158.5533v-5.51428h465.23492v5.51428z" fill="#800000" stroke="#000000" stroke-width="0.5"/><path d="M7.29237,202.70463v-5.51428h465.23492v5.51428z" fill="#800000" stroke="#000000" stroke-width="0.5"/><path d="M467.77375,216.91821v-75.5455h6.97302v75.5455z" fill="#ae3800" stroke="#000000" stroke-width="0.5"/><path d="M1.70215,212.78256v-69.4798h10.59888v69.4798z" fill="#ae3800" stroke="#000000" stroke-width="0.5"/><path d="M378.13751,300.35213v-23.1831h93.81021v23.1831z" fill="url(#color-86)" stroke="none" stroke-width="0"/><path d="M389.83204,282.46236c3.08085,0 5.57837,2.798 5.57837,6.2495c0,3.4515 -2.49752,6.2495 -5.57837,6.2495c-3.08085,0 -5.57837,-2.798 -5.57837,-6.2495c0,-3.4515 2.49752,-6.2495 5.57837,-6.2495z" fill="#ffffff" stroke="none" stroke-width="0"/><path d="M414.2447,279.99969c3.08085,0 5.57837,2.798 5.57837,6.2495c0,3.4515 -2.49752,6.2495 -5.57837,6.2495c-3.08085,0 -5.57837,-2.798 -5.57837,-6.2495c0,-3.4515 2.49752,-6.2495 5.57837,-6.2495z" fill="#ffffff" stroke="none" stroke-width="0"/><g stroke="#000000" stroke-width="0.5"><path d="M379.8409,283.9369c0.10767,-5.78535 4.84577,-10.38875 10.58284,-10.28198c5.73706,0.10678 10.30059,4.88329 10.19292,10.66864c-0.10767,5.78535 -4.84577,10.38873 -10.58283,10.28196c-5.73708,-0.10678 -10.3006,-4.88328 -10.19293,-10.66863z" fill="#353535"/><path d="M387.47368,368.46189l1.39547,-74.9811l3.20701,0.05969l-1.39548,74.9811z" fill="#ffa600"/></g><path d="M384.94791,299.56664v-4.30113h13.16493v4.30113z" fill="#000000" stroke="#000000" stroke-width="0.5"/><g stroke="#000000" stroke-width="0.5"><path d="M405.81553,282.98149c0.10767,-5.78535 4.84578,-10.38874 10.58284,-10.28197c5.73706,0.10678 10.30059,4.88329 10.19292,10.66864c-0.10767,5.78535 -4.84577,10.38873 -10.58284,10.28196c-5.73708,-0.10678 -10.3006,-4.88329 -10.19293,-10.66863z" fill="#353535"/><path d="M413.44831,367.50648l1.39548,-74.9811l3.20701,0.05969l-1.39547,74.9811z" fill="#ffa600"/></g><path d="M408.65258,299.99036l0.24191,-6.43773l13.22339,-0.07028l-0.24191,6.43774z" fill="#000000" stroke="#000000" stroke-width="0.5"/><path d="M439.10366,279.59572c3.08085,0 5.57837,2.798 5.57837,6.2495c0,3.4515 -2.49752,6.2495 -5.57837,6.2495c-3.08085,0 -5.57837,-2.798 -5.57837,-6.2495c0,-3.4515 2.49752,-6.2495 5.57837,-6.2495z" fill="#ffffff" stroke="none" stroke-width="0"/><path d="M460.05776,279.41231c3.08085,0 5.57837,2.798 5.57837,6.2495c0,3.4515 -2.49752,6.2495 -5.57837,6.2495c-3.08085,0 -5.57837,-2.798 -5.57837,-6.2495c0,-3.4515 2.49752,-6.2495 5.57837,-6.2495z" fill="#ffffff" stroke="none" stroke-width="0"/><path d="M-0.56929,17.09618v-22.0571h475.8338v22.0571z" fill="#000000" stroke="#000000" stroke-width="0.5"/><path d="M13.37663,26.47042v-0.55142h2.23132v0.55142z" fill="#858585" stroke="#000000" stroke-width="0.5"/><path d="M470.91547,111.05623v-96.49976h19.52417v96.49976z" fill="#ae3800" stroke="#000000" stroke-width="0.5"/><path d="M4.56488,100.57912v-74.99405h13.38806v74.99405z" fill="#ae3800" stroke="#000000" stroke-width="0.5"/></g></g></svg>